<?xml version="1.0" encoding="UTF-8"?>
<svg version="1.1" xmlns="http://www.w3.org/2000/svg" width="128" height="128">
<path d="M0 0 C11.65070027 5.95502403 20.61810759 13.0338226 26.5859375 24.96948242 C27.71762892 40.31224968 27.71762892 40.31224968 24.01171875 45.31713867 C23.30595703 46.13504883 23.30595703 46.13504883 22.5859375 46.96948242 C22.02261719 47.71069336 21.45929688 48.4519043 20.87890625 49.21557617 C5.29970101 68.30978374 -22.86988076 81.30053305 -46.9921875 84.43432617 C-55.73480264 84.85902667 -63.62349889 82.7137316 -70.578125 77.27807617 C-79.20074063 68.49034662 -80.0491575 57.1718844 -79.95288086 45.46484375 C-79.36393227 28.03993638 -73.00199934 9.54719812 -60.66015625 -3.15551758 C-42.69874387 -18.14939226 -18.82920197 -9.23304618 0 0 Z " fill="#4EBF8C" transform="translate(91.4140625,27.030517578125)"/>
<path d="M0 0 C1.98 0 3.96 0 6 0 C6 0.66 6 1.32 6 2 C6.62559814 2.08088867 7.25119629 2.16177734 7.89575195 2.24511719 C10 3 10 3 10.98901367 4.77832031 C11.21306885 5.53725586 11.43712402 6.29619141 11.66796875 7.078125 C11.92126953 7.90957031 12.17457031 8.74101563 12.43554688 9.59765625 C12.80776367 10.91056641 12.80776367 10.91056641 13.1875 12.25 C13.57711914 13.53970703 13.57711914 13.53970703 13.97460938 14.85546875 C14.96025314 18.16132303 15.89464669 21.39653625 16.48828125 24.796875 C17.13526173 27.58234823 18.43910791 29.62472943 20 32 C20.32613281 30.87722656 20.65226562 29.75445312 20.98828125 28.59765625 C23.19791751 21.01922165 25.41607814 13.46107438 28 6 C28.391875 4.824375 28.78375 3.64875 29.1875 2.4375 C29.455625 1.633125 29.72375 0.82875 30 0 C33.3 0 36.6 0 40 0 C40 0.99 40 1.98 40 3 C38.35 3 36.7 3 35 3 C35 3.66 35 4.32 35 5 C36.32 5.33 37.64 5.66 39 6 C38.54803755 7.60597325 38.08817673 9.20972508 37.625 10.8125 C37.24214844 12.15248047 37.24214844 12.15248047 36.8515625 13.51953125 C36 16 36 16 34 19 C33.18113784 21.6404713 32.41690461 24.27271468 31.6875 26.9375 C29.62852981 34.22842015 27.12895192 41.08967639 24 48 C21.03 48 18.06 48 15 48 C13.24842355 43.34664523 11.50136836 38.69164213 9.76074219 34.03417969 C9.12611666 32.33722849 8.48913173 30.6411599 7.8515625 28.9453125 C6.03153026 24.03850559 4.31906919 19.0976665 2.6875 14.125 C2.34074219 13.07570313 1.99398437 12.02640625 1.63671875 10.9453125 C0.97229256 7.87183184 1.14351185 5.99494564 2 3 C1.34 3 0.68 3 0 3 C0 2.01 0 1.02 0 0 Z " fill="#374E5F" transform="translate(43,44)"/>
<path d="M0 0 C0.99 0 1.98 0 3 0 C3 0.66 3 1.32 3 2 C3.66 2 4.32 2 5 2 C5 3.32 5 4.64 5 6 C2.5 7.75 2.5 7.75 0 9 C-1.4606285 6.35261084 -2 5.10551666 -2 2 C-1.34 2 -0.68 2 0 2 C0 1.34 0 0.68 0 0 Z " fill="#3D6C6B" transform="translate(58,83)"/>
</svg>
